<svg width="1024" height="1024" viewBox="0 0 1024 1024" fill="none" xmlns="http://www.w3.org/2000/svg">
<g clip-path="url(#clip0_103_68)">
<path fill-rule="evenodd" clip-rule="evenodd" d="M55.4834 420.49H14.9358C7.06068 535.801 10.0344 662.563 32.7554 753.071C44.4587 796.31 78.2438 830.086 121.494 841.786C199.301 863 512.457 863 512.457 863C512.457 863 538.612 863 577.681 862.488C575.686 858.447 574.101 854.09 573.086 849.415C568.564 828.585 574.516 809.057 580.11 799.499C585.703 789.942 592.717 779.893 608.791 772.112C624.864 764.33 643.884 764.583 651.031 765.923C658.177 767.264 668.68 770.938 674.903 774.662C679.113 777.181 685.236 782.572 688.965 786.068C690.158 787.185 692.166 788.433 692.559 786.847C692.693 786.302 692.731 785.52 692.608 784.422C692.23 781.046 691.337 692.648 690.804 634.449C690.703 623.426 699.544 614.431 710.566 614.302L849.834 612.676C864.224 612.508 874.077 627.138 868.511 640.41L858.089 665.262C855.806 673.357 853.755 693.125 863.81 707.435C876.38 725.324 885.019 732.342 909.76 733.952C934.5 735.562 952.79 713.991 955.581 708.737C955.992 707.965 956.433 707.202 956.892 706.41C959.55 701.817 962.776 696.243 963.827 682.063C964.813 668.762 957.302 652.555 953.424 646.114L950.448 639.545C944.49 626.397 953.998 611.461 968.431 611.292L1009.39 610.814C1017.86 493.652 1014.55 363.616 991.516 270.929C979.813 227.69 946.028 193.914 902.778 182.214C824.971 161 511.814 161 511.814 161C511.814 161 483.846 161.057 442.549 161.704C447.811 168.63 452.06 176.812 453.99 186.25C458.273 207.198 452.086 226.718 446.375 236.24C440.663 245.762 433.524 255.76 417.342 263.378C401.16 270.995 382.122 270.519 374.983 269.091C367.844 267.663 357.373 263.854 351.186 260.045C347 257.468 340.931 251.987 337.238 248.436C336.059 247.303 334.066 246.03 333.654 247.612C333.512 248.157 333.465 248.942 333.576 250.047C333.915 253.439 333.776 342.188 333.629 400.575C333.601 411.598 324.656 420.49 313.633 420.49H174.108C159.723 420.49 150.042 405.758 155.75 392.554L166.519 367.643C168.898 359.549 171.183 339.744 161.283 325.27C148.909 307.179 140.342 300.037 115.592 298.133C90.8432 296.228 72.2813 317.653 69.4257 322.89C69.0057 323.66 68.5548 324.42 68.0867 325.209L68.0865 325.209C65.3717 329.785 62.0765 335.339 60.8587 349.551C59.7164 362.882 67.046 379.228 70.8535 385.735L73.8017 392.462C79.5927 405.677 69.9116 420.49 55.4834 420.49ZM639.625 575.152C647.676 588.481 638.077 605.492 622.505 605.492H366.753C351.181 605.492 341.582 588.481 349.633 575.152L477.51 363.437C485.289 350.557 503.969 350.557 511.749 363.437L639.625 575.152Z" fill="#FF0000"/>
<path d="M14.9358 420.49V395.49H-8.41511L-10.0061 418.786L14.9358 420.49ZM32.7554 753.071L8.50779 759.158L8.56374 759.381L8.62377 759.603L32.7554 753.071ZM121.494 841.786L128.07 817.666L128.046 817.66L128.022 817.653L121.494 841.786ZM577.681 862.488L578.009 887.486L617.647 886.966L600.098 851.421L577.681 862.488ZM573.086 849.415L597.517 844.112L597.517 844.112L573.086 849.415ZM608.791 772.112L597.897 749.61L597.897 749.61L608.791 772.112ZM651.031 765.923L655.639 741.352L655.639 741.352L651.031 765.923ZM674.903 774.662L662.067 796.115L662.067 796.115L674.903 774.662ZM688.965 786.068L706.062 767.828L706.062 767.827L688.965 786.068ZM692.559 786.847L716.828 792.847L716.828 792.846L692.559 786.847ZM692.608 784.422L717.453 781.641L717.453 781.64L692.608 784.422ZM690.804 634.449L665.805 634.677L665.805 634.677L690.804 634.449ZM710.566 614.302L710.858 639.3L710.858 639.3L710.566 614.302ZM849.834 612.676L849.542 587.678L849.542 587.678L849.834 612.676ZM868.511 640.41L845.456 630.741L845.456 630.741L868.511 640.41ZM858.089 665.262L835.034 655.593L834.442 657.004L834.027 658.477L858.089 665.262ZM863.81 707.435L843.355 721.809L843.355 721.809L863.81 707.435ZM909.76 733.952L908.137 758.899L908.137 758.899L909.76 733.952ZM955.581 708.737L977.658 720.467L977.658 720.467L955.581 708.737ZM956.892 706.41L935.255 693.886L935.255 693.886L956.892 706.41ZM963.827 682.063L938.896 680.215L938.896 680.215L963.827 682.063ZM953.424 646.114L930.652 656.431L931.254 657.76L932.007 659.01L953.424 646.114ZM950.448 639.545L973.219 629.227L973.219 629.227L950.448 639.545ZM968.431 611.292L968.14 586.294L968.14 586.294L968.431 611.292ZM1009.39 610.814L1009.68 635.812L1032.67 635.544L1034.33 612.617L1009.39 610.814ZM991.516 270.929L1015.78 264.899L1015.72 264.647L1015.65 264.397L991.516 270.929ZM902.778 182.214L896.201 206.334L896.225 206.34L896.249 206.347L902.778 182.214ZM511.814 161V136H511.788L511.763 136L511.814 161ZM442.549 161.704L442.158 136.707L392.749 137.481L422.643 176.828L442.549 161.704ZM453.99 186.25L429.497 191.258L429.497 191.258L453.99 186.25ZM446.375 236.24L424.936 223.381L424.936 223.381L446.375 236.24ZM417.342 263.378L427.99 285.997L427.99 285.997L417.342 263.378ZM374.983 269.091L379.887 244.577L379.887 244.577L374.983 269.091ZM351.186 260.045L364.291 238.755L364.291 238.755L351.186 260.045ZM337.238 248.436L354.565 230.415L354.565 230.414L337.238 248.436ZM333.654 247.612L357.848 253.912L357.848 253.912L333.654 247.612ZM333.576 250.047L358.452 247.56L358.452 247.56L333.576 250.047ZM333.629 400.575L358.629 400.638L358.629 400.638L333.629 400.575ZM155.75 392.554L178.697 402.474L178.697 402.474L155.75 392.554ZM166.519 367.643L189.466 377.563L190.072 376.161L190.503 374.695L166.519 367.643ZM161.283 325.27L181.918 311.156L181.918 311.156L161.283 325.27ZM115.592 298.133L117.51 273.206L117.51 273.206L115.592 298.133ZM69.4257 322.89L91.3746 334.858L91.3747 334.858L69.4257 322.89ZM68.0867 325.209L89.2866 338.459L89.4397 338.214L89.5871 337.966L68.0867 325.209ZM68.0865 325.209L46.8866 311.959L46.7335 312.204L46.5861 312.453L68.0865 325.209ZM60.8587 349.551L35.9499 347.417L35.9499 347.417L60.8587 349.551ZM70.8535 385.735L93.7514 375.7L93.1666 374.366L92.4307 373.108L70.8535 385.735ZM73.8017 392.462L50.9038 402.497L50.9038 402.497L73.8017 392.462ZM639.625 575.152L661.024 562.227L661.024 562.227L639.625 575.152ZM349.633 575.152L328.234 562.227L328.234 562.227L349.633 575.152ZM477.51 363.437L498.909 376.362L498.909 376.362L477.51 363.437ZM511.749 363.437L533.148 350.512L533.148 350.512L511.749 363.437ZM14.9358 445.49H55.4834V395.49H14.9358V445.49ZM57.0031 746.984C35.2299 660.251 32.0672 536.559 39.8777 422.193L-10.0061 418.786C-17.9458 535.043 -15.1611 664.874 8.50779 759.158L57.0031 746.984ZM128.022 817.653C93.3489 808.273 66.2677 781.197 56.8871 746.54L8.62377 759.603C22.6498 811.423 63.1387 851.898 114.965 865.918L128.022 817.653ZM512.457 863C512.457 838 512.457 838 512.455 838C512.453 838 512.45 838 512.446 838C512.438 838 512.425 838 512.407 838C512.371 838 512.316 838 512.243 838C512.097 838 511.876 838 511.584 837.999C510.998 837.999 510.124 837.997 508.977 837.995C506.684 837.99 503.303 837.979 498.968 837.959C490.297 837.918 477.812 837.835 462.582 837.67C432.112 837.34 390.705 836.679 346.906 835.36C303.066 834.039 257.034 832.063 217.252 829.118C176.753 826.12 144.88 822.249 128.07 817.666L114.918 865.905C137.011 871.929 173.461 876.014 213.561 878.982C254.379 882.004 301.225 884.006 345.4 885.337C389.616 886.669 431.361 887.334 462.04 887.667C477.384 887.833 489.972 887.917 498.73 887.958C503.11 887.979 506.533 887.99 508.865 887.995C510.031 887.997 510.925 887.999 511.529 887.999C511.831 888 512.061 888 512.216 888C512.294 888 512.353 888 512.393 888C512.414 888 512.429 888 512.44 888C512.445 888 512.449 888 512.452 888C512.455 888 512.457 888 512.457 863ZM577.354 837.49C557.891 837.745 541.648 837.873 530.278 837.936C524.594 837.968 520.128 837.984 517.089 837.992C515.569 837.996 514.406 837.998 513.626 837.999C513.235 838 512.941 838 512.745 838C512.647 838 512.574 838 512.526 838C512.502 838 512.484 838 512.472 838C512.467 838 512.463 838 512.46 838C512.459 838 512.458 838 512.457 838C512.457 838 512.457 838 512.457 838C512.457 838 512.457 838 512.457 863C512.457 888 512.458 888 512.458 888C512.458 888 512.459 888 512.459 888C512.46 888 512.462 888 512.464 888C512.468 888 512.473 888 512.48 888C512.494 888 512.514 888 512.541 888C512.594 888 512.673 888 512.776 888C512.982 888 513.288 887.999 513.689 887.999C514.491 887.998 515.677 887.996 517.22 887.992C520.305 887.984 524.82 887.968 530.558 887.936C542.033 887.871 558.402 887.743 578.009 887.486L577.354 837.49ZM548.655 854.719C550.135 861.538 552.435 867.824 555.265 873.555L600.098 851.421C598.937 849.069 598.066 846.641 597.517 844.112L548.655 854.719ZM558.533 786.872C550.277 800.979 542.607 826.858 548.655 854.719L597.517 844.112C594.521 830.312 598.756 817.134 601.686 812.127L558.533 786.872ZM597.897 749.61C575.59 760.409 565.405 775.13 558.533 786.872L601.686 812.127C604.123 807.963 606.128 804.998 608.614 802.391C610.981 799.909 614.305 797.218 619.684 794.613L597.897 749.61ZM655.639 741.352C644.551 739.272 619.862 738.976 597.897 749.61L619.684 794.613C624.314 792.372 630.007 791.029 635.669 790.48C638.415 790.214 640.91 790.159 642.931 790.219C643.935 790.249 644.768 790.306 645.406 790.368C645.723 790.399 645.972 790.429 646.154 790.454C646.339 790.479 646.426 790.495 646.422 790.495L655.639 741.352ZM687.74 753.209C678.541 747.705 665.143 743.134 655.639 741.352L646.422 790.495C651.212 791.393 658.818 794.171 662.067 796.115L687.74 753.209ZM706.062 767.827C702.463 764.454 694.55 757.284 687.74 753.209L662.067 796.115C662.062 796.112 662.093 796.13 662.161 796.174C662.228 796.218 662.322 796.28 662.443 796.363C662.689 796.531 663.006 796.757 663.393 797.046C664.178 797.632 665.102 798.365 666.123 799.215C668.177 800.925 670.264 802.804 671.869 804.308L706.062 767.827ZM668.289 780.846C669.698 775.15 674.242 767.168 683.987 763.87C691.616 761.289 697.8 763.323 699.569 763.963C703.537 765.399 705.667 767.457 706.062 767.828L671.868 804.307C673.456 805.796 677.187 809.037 682.555 810.979C685.024 811.873 691.859 813.991 700.012 811.233C710.281 807.758 715.223 799.336 716.828 792.847L668.289 780.846ZM667.763 787.204C667.724 786.854 667.662 786.145 667.689 785.165C667.715 784.209 667.832 782.697 668.289 780.847L716.828 792.846C717.95 788.306 717.745 784.249 717.453 781.641L667.763 787.204ZM665.805 634.677C666.071 663.785 666.428 700.454 666.765 730.277C666.934 745.184 667.098 758.406 667.244 768.124C667.317 772.977 667.386 776.999 667.449 779.936C667.493 781.966 667.554 785.335 667.763 787.204L717.453 781.64C717.567 782.666 717.517 782.533 717.438 778.856C717.378 776.085 717.311 772.192 717.239 767.374C717.094 757.749 716.931 744.601 716.762 729.711C716.425 699.941 716.069 663.312 715.803 634.22L665.805 634.677ZM710.274 589.304C685.521 589.593 665.577 609.822 665.805 634.677L715.803 634.22C715.828 637.03 713.566 639.269 710.858 639.3L710.274 589.304ZM849.542 587.678L710.274 589.304L710.858 639.3L850.125 637.675L849.542 587.678ZM891.565 650.078C904.089 620.217 881.921 587.3 849.542 587.678L850.125 637.675C846.528 637.717 844.065 634.059 845.456 630.741L891.565 650.078ZM881.143 674.93L891.565 650.078L845.456 630.741L835.034 655.593L881.143 674.93ZM884.265 693.062C882.765 690.927 881.567 687.411 881.279 682.539C880.99 677.665 881.743 673.491 882.15 672.047L834.027 658.477C832.151 665.128 830.737 674.885 831.366 685.497C831.995 696.11 834.8 709.633 843.355 721.809L884.265 693.062ZM911.383 709.005C901.02 708.33 897.255 706.693 895.307 705.497C893.049 704.109 890.163 701.455 884.265 693.062L843.355 721.809C850.028 731.305 857.746 741.103 869.135 748.1C880.835 755.287 893.759 757.964 908.137 758.899L911.383 709.005ZM933.504 697.007C934.19 695.715 934.058 696.291 932.247 698.279C930.737 699.935 928.65 701.91 926.164 703.724C920.967 707.516 915.92 709.3 911.383 709.005L908.137 758.899C928.341 760.214 944.808 752.016 955.639 744.113C965.988 736.56 974.112 727.142 977.658 720.467L933.504 697.007ZM935.255 693.886C934.838 694.606 934.164 695.765 933.504 697.007L977.658 720.467C977.819 720.165 978.028 719.798 978.529 718.934L935.255 693.886ZM938.896 680.215C938.493 685.652 937.748 688.445 937.29 689.792C936.868 691.034 936.48 691.769 935.255 693.886L978.528 718.934C979.961 716.458 982.516 712.11 984.634 705.872C986.717 699.739 988.111 692.654 988.759 683.911L938.896 680.215ZM932.007 659.01C933.071 660.776 935.159 664.842 936.805 669.637C938.552 674.722 939.03 678.406 938.896 680.215L988.759 683.911C989.611 672.419 986.826 661.349 984.094 653.395C981.262 645.15 977.656 637.892 974.841 633.217L932.007 659.01ZM927.676 649.862L930.652 656.431L976.195 635.796L973.219 629.227L927.676 649.862ZM968.14 586.294C935.664 586.673 914.272 620.28 927.676 649.863L973.219 629.227C974.708 632.514 972.332 636.248 968.723 636.29L968.14 586.294ZM1009.1 585.816L968.14 586.294L968.723 636.29L1009.68 635.812L1009.1 585.816ZM967.254 276.958C989.362 365.925 992.847 492.937 984.455 609.011L1034.33 612.617C1042.87 494.368 1039.74 361.307 1015.78 264.899L967.254 276.958ZM896.249 206.347C930.922 215.727 958.004 242.803 967.384 277.46L1015.65 264.397C1001.62 212.577 961.133 172.102 909.306 158.082L896.249 206.347ZM511.814 161C511.814 186 511.815 186 511.816 186C511.818 186 511.821 186 511.825 186C511.834 186 511.847 186 511.865 186C511.9 186 511.955 186 512.028 186C512.174 186 512.395 186 512.688 186.001C513.273 186.001 514.148 186.003 515.294 186.005C517.587 186.01 520.968 186.021 525.303 186.041C533.974 186.082 546.46 186.165 561.69 186.33C592.16 186.66 633.567 187.321 677.365 188.64C721.205 189.961 767.237 191.937 807.019 194.882C847.519 197.88 879.392 201.751 896.201 206.334L909.354 158.095C887.26 152.071 850.811 147.986 810.71 145.018C769.892 141.996 723.046 139.994 678.871 138.663C634.655 137.331 592.91 136.666 562.232 136.333C546.887 136.167 534.3 136.083 525.541 136.042C521.161 136.021 517.738 136.01 515.406 136.005C514.24 136.003 513.346 136.001 512.742 136.001C512.44 136 512.21 136 512.055 136C511.977 136 511.918 136 511.878 136C511.858 136 511.842 136 511.832 136C511.826 136 511.822 136 511.819 136C511.816 136 511.814 136 511.814 161ZM442.941 186.701C463.514 186.379 480.764 186.204 492.864 186.109C498.913 186.061 503.674 186.034 506.917 186.019C508.539 186.011 509.781 186.006 510.616 186.004C511.033 186.002 511.348 186.001 511.557 186.001C511.662 186 511.74 186 511.792 186C511.818 186 511.837 186 511.849 186C511.855 186 511.86 186 511.862 186C511.864 186 511.865 186 511.865 186C511.865 186 511.866 186 511.866 186C511.866 186 511.865 186 511.814 161C511.763 136 511.762 136 511.762 136C511.762 136 511.761 136 511.761 136C511.759 136 511.758 136 511.756 136C511.752 136 511.746 136 511.738 136C511.724 136 511.702 136 511.673 136C511.617 136 511.533 136.001 511.423 136.001C511.202 136.001 510.876 136.002 510.448 136.004C509.591 136.007 508.326 136.012 506.68 136.019C503.389 136.035 498.577 136.063 492.472 136.11C480.264 136.206 462.882 136.383 442.158 136.707L442.941 186.701ZM478.483 181.242C475.663 167.45 469.524 155.884 462.456 146.58L422.643 176.828C426.098 181.376 428.457 186.174 429.497 191.258L478.483 181.242ZM467.814 249.1C476.234 235.061 484.205 209.222 478.483 181.242L429.497 191.258C432.342 205.174 427.938 218.375 424.936 223.381L467.814 249.1ZM427.99 285.997C450.444 275.427 460.804 260.786 467.814 249.1L424.936 223.381C422.446 227.532 420.4 230.488 417.876 233.079C415.473 235.547 412.111 238.209 406.694 240.759L427.99 285.997ZM370.078 293.605C381.158 295.822 405.875 296.407 427.99 285.997L406.694 240.759C402.033 242.953 396.32 244.233 390.647 244.717C387.895 244.952 385.398 244.978 383.376 244.894C382.372 244.852 381.539 244.785 380.901 244.715C380.585 244.681 380.336 244.648 380.155 244.621C379.97 244.593 379.883 244.576 379.887 244.577L370.078 293.605ZM338.08 281.335C347.223 286.963 360.582 291.705 370.078 293.605L379.887 244.577C375.105 243.62 367.523 240.745 364.291 238.755L338.08 281.335ZM319.911 266.458C323.474 269.883 331.312 277.168 338.08 281.335L364.291 238.755C364.295 238.758 364.265 238.739 364.197 238.694C364.129 238.65 364.036 238.586 363.916 238.501C363.67 238.329 363.356 238.098 362.971 237.803C362.191 237.206 361.274 236.459 360.261 235.593C358.223 233.853 356.154 231.942 354.565 230.415L319.911 266.458ZM357.848 253.912C356.37 259.587 351.729 267.515 341.943 270.692C334.28 273.18 328.119 271.068 326.358 270.406C322.408 268.92 320.303 266.834 319.912 266.458L354.565 230.414C352.995 228.905 349.304 225.616 343.959 223.606C341.501 222.681 334.691 220.477 326.502 223.136C316.189 226.484 311.145 234.846 309.461 241.313L357.848 253.912ZM358.452 247.56C358.486 247.907 358.539 248.616 358.501 249.595C358.464 250.551 358.329 252.063 357.848 253.912L309.461 241.313C308.28 245.849 308.438 249.919 308.7 252.534L358.452 247.56ZM358.629 400.638C358.702 371.437 358.774 334.633 358.784 304.697C358.79 289.734 358.78 276.461 358.748 266.704C358.731 261.833 358.709 257.795 358.68 254.847C358.66 252.804 358.639 249.431 358.452 247.56L308.7 252.534C308.597 251.511 308.646 251.654 308.683 255.342C308.71 258.124 308.732 262.033 308.748 266.871C308.78 276.533 308.79 289.733 308.784 304.679C308.774 334.563 308.702 371.327 308.629 400.512L358.629 400.638ZM313.633 445.49C338.388 445.49 358.567 425.495 358.629 400.638L308.629 400.512C308.636 397.702 310.925 395.49 313.633 395.49V445.49ZM174.108 445.49H313.633V395.49H174.108V445.49ZM132.802 382.633C119.959 412.343 141.741 445.49 174.108 445.49V395.49C177.704 395.49 180.125 399.173 178.697 402.474L132.802 382.633ZM143.571 357.723L132.802 382.634L178.697 402.474L189.466 377.563L143.571 357.723ZM140.648 339.384C142.139 341.563 143.301 345.127 143.534 350.034C143.767 354.942 142.962 359.134 142.534 360.591L190.503 374.695C192.455 368.058 193.982 358.301 193.478 347.664C192.973 337.027 190.328 323.451 181.918 311.156L140.648 339.384ZM113.674 323.059C124.038 323.857 127.787 325.542 129.725 326.767C131.976 328.188 134.84 330.892 140.648 339.384L181.918 311.156C175.352 301.557 167.745 291.644 156.431 284.496C144.805 277.151 131.896 274.313 117.51 273.206L113.674 323.059ZM91.3747 334.858C90.6775 336.137 90.8213 335.555 92.6594 333.582C94.193 331.935 96.3076 329.976 98.8188 328.185C104.071 324.437 109.144 322.71 113.674 323.059L117.51 273.206C97.292 271.651 80.709 279.684 69.7791 287.482C59.3323 294.935 51.0968 304.283 47.4767 310.921L91.3747 334.858ZM89.5871 337.966C90.0133 337.247 90.7003 336.095 91.3746 334.858L47.4767 310.921C47.3111 311.225 47.0963 311.593 46.5862 312.452L89.5871 337.966ZM89.2865 338.459L89.2866 338.459L46.8867 311.959L46.8866 311.959L89.2865 338.459ZM85.7674 351.686C86.235 346.228 87.0153 343.424 87.493 342.067C87.9338 340.815 88.3356 340.075 89.587 337.966L46.5861 312.453C45.1226 314.919 42.5194 319.244 40.3294 325.466C38.1764 331.583 36.7001 338.662 35.9499 347.417L85.7674 351.686ZM92.4307 373.108C91.3834 371.319 89.3372 367.209 87.742 362.372C86.051 357.244 85.6098 353.524 85.7674 351.686L35.9499 347.417C34.9652 358.909 37.6177 370.027 40.2578 378.032C42.9937 386.328 46.5161 393.644 49.2764 398.361L92.4307 373.108ZM96.6996 382.428L93.7514 375.7L47.9556 395.769L50.9038 402.497L96.6996 382.428ZM55.4834 445.49C87.9469 445.49 109.729 412.162 96.6996 382.428L50.9038 402.497C49.456 399.193 51.8763 395.49 55.4834 395.49V445.49ZM622.505 630.492C657.543 630.492 679.139 592.218 661.024 562.227L618.225 588.077C616.213 584.745 618.612 580.492 622.505 580.492V630.492ZM366.753 630.492H622.505V580.492H366.753V630.492ZM328.234 562.227C310.119 592.218 331.716 630.492 366.753 630.492V580.492C370.646 580.492 373.046 584.745 371.033 588.077L328.234 562.227ZM456.11 350.512L328.234 562.227L371.033 588.077L498.909 376.362L456.11 350.512ZM533.148 350.512C515.645 321.532 473.614 321.532 456.11 350.512L498.909 376.362C496.964 379.582 492.294 379.582 490.349 376.362L533.148 350.512ZM661.024 562.227L533.148 350.512L490.349 376.362L618.225 588.077L661.024 562.227Z" fill="white"/>
</g>
<defs>
<clipPath id="clip0_103_68">
<rect width="1024" height="1024" fill="white"/>
</clipPath>
</defs>
</svg>
